<svg width="21" height="20" viewBox="0 0 21 20" fill="none" xmlns="http://www.w3.org/2000/svg">
<path id="Star 16" d="M9.62885 0.545575C10.0114 -0.13307 10.9886 -0.13307 11.3712 0.545574L13.9254 5.0773C14.0681 5.33047 14.3139 5.50905 14.5988 5.56653L19.698 6.5954C20.4617 6.74948 20.7636 7.67892 20.2364 8.25243L16.7158 12.0821C16.5191 12.296 16.4252 12.5849 16.4586 12.8736L17.0558 18.0413C17.1453 18.8151 16.3546 19.3895 15.6463 19.0653L10.9162 16.9005C10.6519 16.7795 10.3481 16.7795 10.0838 16.9005L5.35371 19.0653C4.64536 19.3895 3.85472 18.8151 3.94416 18.0413L4.54139 12.8736C4.57476 12.5849 4.48088 12.296 4.28419 12.0821L0.763579 8.25243C0.236352 7.67892 0.538347 6.74948 1.30198 6.5954L6.40122 5.56653C6.6861 5.50905 6.93188 5.33047 7.07458 5.0773L9.62885 0.545575Z" fill="url(#paint0_linear_1_81)"/>
<defs>
<linearGradient id="paint0_linear_1_81" x1="16.8065" y1="-1" x2="4.93548" y2="22" gradientUnits="userSpaceOnUse">
<stop stop-color="#FED836"/>
<stop offset="1" stop-color="#FCBB09"/>
</linearGradient>
</defs>
</svg>
