<svg width="32" height="32" viewBox="0 0 32 32" fill="none" xmlns="http://www.w3.org/2000/svg">
<g id="ic_18Plus">
<g id="Group 174">
<g id="Union">
<path d="M28.4972 11.7672C28.9579 13.1271 29.1917 14.5494 29.1917 16C29.1917 23.2737 23.2739 29.1914 16 29.1914C8.72617 29.1914 2.80834 23.2737 2.80834 16C2.80834 8.72609 8.72607 2.8086 16 2.8086C17.4508 2.8086 18.8731 3.04213 20.2327 3.50306V0.567481C18.8594 0.191009 17.441 0 16 0C7.17765 0 0 7.17758 0 16C0 24.8224 7.17765 32 16 32C24.8225 32 32 24.8224 32 16C32 14.5592 31.8091 13.1407 31.4326 11.7672H28.4972Z" fill="#FF0000"/>
<path fill-rule="evenodd" clip-rule="evenodd" d="M21.8003 15.5142C22.6512 15.0499 23.1618 14.2145 23.1618 13.2708C23.1618 11.4916 21.661 10.3623 19.2785 10.3623C16.9269 10.3623 15.4107 11.4606 15.4107 13.1935C15.4107 14.1373 15.9986 15.0035 16.9114 15.5142C15.6582 16.0091 14.8537 17.0612 14.8537 18.299C14.8537 20.2173 16.5865 21.4396 19.294 21.4396C22.0014 21.4396 23.7342 20.2018 23.7342 18.2525C23.7342 17.0458 22.9915 16.0091 21.8003 15.5142ZM19.294 19.4439C18.1027 19.4439 17.4528 18.9334 17.4528 18.0205C17.4528 17.1232 18.1026 16.6126 19.294 16.6126C20.4852 16.6126 21.1505 17.1233 21.1505 18.0205C21.1505 18.949 20.4852 19.4439 19.294 19.4439ZM19.294 14.6322C18.2884 14.6322 17.7314 14.1992 17.7314 13.4255C17.7314 12.6212 18.2883 12.1725 19.294 12.1725C20.2996 12.1725 20.8565 12.6212 20.8565 13.4255C20.8565 14.1991 20.2996 14.6322 19.294 14.6322Z" fill="#FF0000"/>
<path d="M10.06 12.6822V21.3154H12.8139V10.4699H8.06424V12.6822H10.06Z" fill="#FF0000"/>
<path d="M27.5226 1.21528V4.26391H30.5711V6.45593H27.5226V9.50447H25.3304V6.45593H22.3001V4.26391H25.3304V1.21528H27.5226Z" fill="#FF0000"/>
</g>
</g>
</g>
</svg>
