<svg width="1920" height="13" viewBox="0 0 1920 13" fill="none" xmlns="http://www.w3.org/2000/svg">
<g clip-path="url(#clip0_52_2)">
<mask id="mask0_52_2" style="mask-type:luminance" maskUnits="userSpaceOnUse" x="-188" y="0" width="2252" height="376">
<path fill-rule="evenodd" clip-rule="evenodd" d="M11.4992 0C5.19426 0 0.0826263 5.15348 0.0826263 11.5106C0.0826263 11.6783 0.0865936 11.8451 0.0935364 12.0111H-187.546V375.346H2063V12.0111H1919.05C1919.06 11.8451 1919.06 11.6783 1919.06 11.5106C1919.06 5.15348 1913.94 0 1907.64 0H1905.13C1898.82 0 1893.71 5.15348 1893.71 11.5106C1893.71 11.6783 1893.72 11.8451 1893.72 12.0111H1876.41C1876.41 11.8451 1876.42 11.6783 1876.42 11.5106C1876.42 5.15348 1871.3 0 1865 0H1859.99C1853.67 0 1848.57 5.15348 1848.57 11.5106C1848.57 11.6783 1848.57 11.8451 1848.58 12.0111H1831.26C1831.27 11.8451 1831.27 11.6783 1831.27 11.5106C1831.27 5.15348 1826.15 0 1819.85 0H1814.84C1808.53 0 1803.42 5.15348 1803.42 11.5106C1803.42 11.6783 1803.42 11.8451 1803.43 12.0111H1786.12C1786.12 11.8451 1786.13 11.6783 1786.13 11.5106C1786.13 5.15348 1781.01 0 1774.71 0H1769.69C1763.38 0 1758.27 5.15348 1758.27 11.5106C1758.27 11.6783 1758.28 11.8451 1758.28 12.0111H1740.97C1740.98 11.8451 1740.98 11.6783 1740.98 11.5106C1740.98 5.15348 1735.86 0 1729.56 0H1724.55C1718.24 0 1713.13 5.15348 1713.13 11.5106C1713.13 11.6783 1713.13 11.8451 1713.14 12.0111H1695.82C1695.83 11.8451 1695.83 11.6783 1695.83 11.5106C1695.83 5.15348 1690.72 0 1684.41 0H1679.4C1673.09 0 1667.98 5.15348 1667.98 11.5106C1667.98 11.6783 1667.98 11.8451 1667.99 12.0111H1650.68C1650.68 11.8451 1650.69 11.6783 1650.69 11.5106C1650.69 5.15348 1645.57 0 1639.27 0H1634.25C1627.94 0 1622.83 5.15348 1622.83 11.5106C1622.83 11.6783 1622.84 11.8451 1622.85 12.0111H1605.53C1605.54 11.8451 1605.54 11.6783 1605.54 11.5106C1605.54 5.15348 1600.42 0 1594.12 0H1589.11C1582.8 0 1577.69 5.15348 1577.69 11.5106C1577.69 11.6783 1577.69 11.8451 1577.7 12.0111H1560.39C1560.39 11.8451 1560.4 11.6783 1560.4 11.5106C1560.4 5.15348 1555.28 0 1548.98 0H1543.96C1537.65 0 1532.54 5.15348 1532.54 11.5106C1532.54 11.6783 1532.55 11.8451 1532.55 12.0111H1515.24C1515.25 11.8451 1515.25 11.6783 1515.25 11.5106C1515.25 5.15348 1510.13 0 1503.83 0H1498.82C1492.51 0 1487.4 5.15348 1487.4 11.5106C1487.4 11.6783 1487.4 11.8451 1487.41 12.0111H1470.09C1470.1 11.8451 1470.1 11.6783 1470.1 11.5106C1470.1 5.15348 1464.98 0 1458.68 0H1453.67C1447.36 0 1442.25 5.15348 1442.25 11.5106C1442.25 11.6783 1442.25 11.8451 1442.26 12.0111H1424.95C1424.95 11.8451 1424.96 11.6783 1424.96 11.5106C1424.96 5.15348 1419.84 0 1413.54 0H1408.52C1402.21 0 1397.1 5.15348 1397.1 11.5106C1397.1 11.6783 1397.11 11.8451 1397.12 12.0111H1379.8C1379.81 11.8451 1379.81 11.6783 1379.81 11.5106C1379.81 5.15348 1374.69 0 1368.39 0H1363.38C1357.07 0 1351.96 5.15348 1351.96 11.5106C1351.96 11.6783 1351.96 11.8451 1351.97 12.0111H1334.65C1334.66 11.8451 1334.67 11.6783 1334.67 11.5106C1334.67 5.15348 1329.55 0 1323.25 0H1318.23C1311.92 0 1306.81 5.15348 1306.81 11.5106C1306.81 11.6783 1306.82 11.8451 1306.82 12.0111H1289.51C1289.52 11.8451 1289.52 11.6783 1289.52 11.5106C1289.52 5.15348 1284.4 0 1278.1 0H1273.09C1266.78 0 1261.67 5.15348 1261.67 11.5106C1261.67 11.6783 1261.67 11.8451 1261.68 12.0111H1244.36C1244.37 11.8451 1244.37 11.6783 1244.37 11.5106C1244.37 5.15348 1239.25 0 1232.95 0H1227.94C1221.63 0 1216.52 5.15348 1216.52 11.5106C1216.52 11.6783 1216.52 11.8451 1216.53 12.0111H1199.22C1199.22 11.8451 1199.23 11.6783 1199.23 11.5106C1199.23 5.15348 1194.11 0 1187.81 0H1182.79C1176.48 0 1171.37 5.15348 1171.37 11.5106C1171.37 11.6783 1171.38 11.8451 1171.38 12.0111H1154.07C1154.08 11.8451 1154.08 11.6783 1154.08 11.5106C1154.08 5.15348 1148.96 0 1142.66 0H1137.65C1131.34 0 1126.23 5.15348 1126.23 11.5106C1126.23 11.6783 1126.23 11.8451 1126.24 12.0111H1108.92C1108.93 11.8451 1108.93 11.6783 1108.93 11.5106C1108.93 5.15348 1103.82 0 1097.51 0H1092.5C1086.19 0 1081.08 5.15348 1081.08 11.5106C1081.08 11.6783 1081.09 11.8451 1081.09 12.0111H1063.78C1063.79 11.8451 1063.79 11.6783 1063.79 11.5106C1063.79 5.15348 1058.67 0 1052.37 0H1047.36C1041.04 0 1035.94 5.15348 1035.94 11.5106C1035.94 11.6783 1035.94 11.8451 1035.95 12.0111H1018.63C1018.64 11.8451 1018.64 11.6783 1018.64 11.5106C1018.64 5.15348 1013.52 0 1007.22 0H1002.21C995.904 0 990.791 5.15348 990.791 11.5106C990.791 11.6783 990.791 11.8451 990.801 12.0111H973.488C973.488 11.8451 973.497 11.6783 973.497 11.5106C973.497 5.15348 968.385 0 962.081 0H957.057C950.754 0 945.641 5.15348 945.641 11.5106C945.641 11.6783 945.651 11.8451 945.651 12.0111H928.338C928.347 11.8451 928.347 11.6783 928.347 11.5106C928.347 5.15348 923.235 0 916.931 0H911.917C905.614 0 900.501 5.15348 900.501 11.5106C900.501 11.6783 900.501 11.8451 900.511 12.0111H883.188C883.198 11.8451 883.197 11.6783 883.197 11.5106C883.197 5.15348 878.095 0 871.781 0H866.768C860.464 0 855.351 5.15348 855.351 11.5106C855.351 11.6783 855.351 11.8451 855.361 12.0111H838.047C838.047 11.8451 838.057 11.6783 838.057 11.5106C838.057 5.15348 832.945 0 826.641 0H821.628C815.314 0 810.211 5.15348 810.211 11.5106C810.211 11.6783 810.211 11.8451 810.221 12.0111H792.898C792.905 11.8451 792.909 11.6783 792.909 11.5106C792.909 5.15348 787.798 0 781.493 0H776.477C770.172 0 765.06 5.15348 765.06 11.5106C765.06 11.6783 765.063 11.8451 765.071 12.0111H747.753C747.759 11.8451 747.763 11.6783 747.763 11.5106C747.763 5.15348 742.652 0 736.347 0H731.331C725.025 0 719.914 5.15348 719.914 11.5106C719.914 11.6783 719.917 11.8451 719.924 12.0111H702.607C702.613 11.8451 702.616 11.6783 702.616 11.5106C702.616 5.15348 697.506 0 691.2 0H686.184C679.879 0 674.767 5.15348 674.767 11.5106C674.767 11.6783 674.771 11.8451 674.778 12.0111H657.459C657.467 11.8451 657.47 11.6783 657.47 11.5106C657.47 5.15348 652.359 0 646.054 0H641.038C634.733 0 629.621 5.15348 629.621 11.5106C629.621 11.6783 629.625 11.8451 629.632 12.0111H612.313C612.32 11.8451 612.324 11.6783 612.324 11.5106C612.324 5.15348 607.213 0 600.908 0H595.892C589.587 0 584.475 5.15348 584.475 11.5106C584.475 11.6783 584.479 11.8451 584.486 12.0111H567.167C567.174 11.8451 567.178 11.6783 567.178 11.5106C567.178 5.15348 562.067 0 555.762 0H550.745C544.441 0 539.329 5.15348 539.329 11.5106C539.329 11.6783 539.332 11.8451 539.34 12.0111H522.021C522.028 11.8451 522.032 11.6783 522.032 11.5106C522.032 5.15348 516.921 0 510.616 0H505.599C499.294 0 494.183 5.15348 494.183 11.5106C494.183 11.6783 494.186 11.8451 494.193 12.0111H476.875C476.882 11.8451 476.885 11.6783 476.885 11.5106C476.885 5.15348 471.775 0 465.469 0H460.453C454.148 0 449.036 5.15348 449.036 11.5106C449.036 11.6783 449.04 11.8451 449.047 12.0111H431.729C431.736 11.8451 431.739 11.6783 431.739 11.5106C431.739 5.15348 426.628 0 420.323 0H415.307C409.002 0 403.89 5.15348 403.89 11.5106C403.89 11.6783 403.894 11.8451 403.901 12.0111H386.583C386.589 11.8451 386.593 11.6783 386.593 11.5106C386.593 5.15348 381.482 0 375.177 0H370.161C363.856 0 358.744 5.15348 358.744 11.5106C358.744 11.6783 358.748 11.8451 358.755 12.0111H341.436C341.443 11.8451 341.447 11.6783 341.447 11.5106C341.447 5.15348 336.336 0 330.031 0H325.015C318.71 0 313.598 5.15348 313.598 11.5106C313.598 11.6783 313.601 11.8451 313.609 12.0111H296.29C296.297 11.8451 296.301 11.6783 296.301 11.5106C296.301 5.15348 291.19 0 284.885 0H279.868C273.563 0 268.452 5.15348 268.452 11.5106C268.452 11.6783 268.455 11.8451 268.462 12.0111H251.144C251.151 11.8451 251.154 11.6783 251.154 11.5106C251.154 5.15348 246.044 0 239.738 0H234.722C228.417 0 223.305 5.15348 223.305 11.5106C223.305 11.6783 223.309 11.8451 223.316 12.0111H205.998C206.005 11.8451 206.008 11.6783 206.008 11.5106C206.008 5.15348 200.897 0 194.592 0H189.576C183.271 0 178.159 5.15348 178.159 11.5106C178.159 11.6783 178.163 11.8451 178.17 12.0111H160.851C160.858 11.8451 160.862 11.6783 160.862 11.5106C160.862 5.15348 155.751 0 149.446 0H144.43C138.125 0 133.013 5.15348 133.013 11.5106C133.013 11.6783 133.017 11.8451 133.024 12.0111H115.705C115.712 11.8451 115.716 11.6783 115.716 11.5106C115.716 5.15348 110.605 0 104.3 0H99.2835C92.9786 0 87.8669 5.15348 87.8669 11.5106C87.8669 11.6783 87.8709 11.8451 87.8779 12.0111H70.5595C70.5664 11.8451 70.5704 11.6783 70.5704 11.5106C70.5704 5.15348 65.4588 0 59.1538 0H54.1375C47.8316 0 42.7209 5.15348 42.7209 11.5106C42.7209 11.6783 42.7239 11.8451 42.7309 12.0111H25.4135C25.4204 11.8451 25.4234 11.6783 25.4234 11.5106C25.4234 5.15348 20.3127 0 14.0068 0H11.4992Z" fill="url(#paint0_linear_52_2)"/>
</mask>
<g mask="url(#mask0_52_2)">
<path d="M0.0938416 12.0108V13.0117H1.12927L1.08559 11.9679L0.0938416 12.0108ZM-187.546 12.0108V11.0098H-188.538V12.0108H-187.546ZM-187.546 375.346H-188.538V376.346H-187.546V375.346ZM2063 375.346V376.346H2064V375.346H2063ZM2063 12.0108H2064V11.0098H2063V12.0108ZM1919.05 12.0108L1918.05 11.968L1918.01 13.0117H1919.05V12.0108ZM1893.72 12.0108V13.0117H1894.76L1894.71 11.968L1893.72 12.0108ZM1876.41 12.0108L1875.42 11.968L1875.37 13.0117H1876.41V12.0108ZM1848.58 12.0108V13.0117H1849.61L1849.57 11.968L1848.58 12.0108ZM1831.26 12.0108L1830.27 11.968L1830.23 13.0117H1831.26V12.0108ZM1803.43 12.0108V13.0117H1804.46L1804.42 11.968L1803.43 12.0108ZM1786.12 12.0108L1785.12 11.968L1785.08 13.0117H1786.12V12.0108ZM1758.28 12.0108V13.0117H1759.32L1759.27 11.968L1758.28 12.0108ZM1740.97 12.0108L1739.97 11.968L1739.94 13.0117H1740.97V12.0108ZM1713.14 12.0108V13.0117H1714.17L1714.13 11.968L1713.14 12.0108ZM1695.82 12.0108L1694.83 11.968L1694.79 13.0117H1695.82V12.0108ZM1667.99 12.0108V13.0117H1669.03L1668.98 11.968L1667.99 12.0108ZM1650.68 12.0108L1649.69 11.968L1649.64 13.0117H1650.68V12.0108ZM1622.85 12.0108V13.0117H1623.88L1623.83 11.968L1622.85 12.0108ZM1605.53 12.0108L1604.54 11.968L1604.5 13.0117H1605.53V12.0108ZM1577.7 12.0108V13.0117H1578.73L1578.69 11.968L1577.7 12.0108ZM1560.39 12.0108L1559.39 11.968L1559.35 13.0117H1560.39V12.0108ZM1532.55 12.0108V13.0117H1533.59L1533.54 11.968L1532.55 12.0108ZM1515.24 12.0108L1514.24 11.968L1514.21 13.0117H1515.24V12.0108ZM1487.41 12.0108V13.0117H1488.44L1488.4 11.968L1487.41 12.0108ZM1470.09 12.0108L1469.09 11.968L1469.06 13.0117H1470.09V12.0108ZM1442.26 12.0108V13.0117H1443.29L1443.25 11.968L1442.26 12.0108ZM1424.95 12.0108L1423.95 11.968L1423.91 13.0117H1424.95V12.0108ZM1397.12 12.0108V13.0117H1398.15L1398.1 11.968L1397.12 12.0108ZM1379.8 12.0108L1378.81 11.968L1378.77 13.0117H1379.8V12.0108ZM1351.97 12.0108V13.0117H1353L1352.96 11.968L1351.97 12.0108ZM1334.65 12.0108L1333.66 11.968L1333.62 13.0117H1334.65V12.0108ZM1306.82 12.0108V13.0117H1307.86L1307.81 11.968L1306.82 12.0108ZM1289.51 12.0108L1288.52 11.968L1288.48 13.0117H1289.51V12.0108ZM1261.68 12.0108V13.0117H1262.71L1262.67 11.968L1261.68 12.0108ZM1244.36 12.0108L1243.36 11.968L1243.33 13.0117H1244.36V12.0108ZM1216.53 12.0108V13.0117H1217.56L1217.52 11.968L1216.53 12.0108ZM1199.22 12.0108L1198.22 11.968L1198.18 13.0117H1199.22V12.0108ZM1171.38 12.0108V13.0117H1172.42L1172.37 11.968L1171.38 12.0108ZM1154.07 12.0108L1153.08 11.968L1153.04 13.0117H1154.07V12.0108ZM1126.24 12.0108V13.0117H1127.27L1127.23 11.968L1126.24 12.0108ZM1108.92 12.0108L1107.93 11.968L1107.89 13.0117H1108.92V12.0108ZM1081.09 12.0108V13.0117H1082.13L1082.08 11.968L1081.09 12.0108ZM1063.78 12.0108L1062.78 11.968L1062.74 13.0117H1063.78V12.0108ZM1035.95 12.0108V13.0117H1036.98L1036.94 11.968L1035.95 12.0108ZM1018.63 12.0108L1017.64 11.968L1017.6 13.0117H1018.63V12.0108ZM990.801 12.0108V13.0117H991.834L991.794 11.968L990.801 12.0108ZM973.488 12.0108L972.495 11.968L972.445 13.0117H973.488V12.0108ZM945.651 12.0108V13.0117H946.694L946.644 11.968L945.651 12.0108ZM928.338 12.0108L927.345 11.968L927.305 13.0117H928.338V12.0108ZM900.511 12.0108V13.0117H901.544L901.504 11.968L900.511 12.0108ZM883.188 12.0108L882.195 11.968L882.155 13.0117H883.188V12.0108ZM855.361 12.0108V13.0117H856.404L856.354 11.968L855.361 12.0108ZM838.048 12.0108L837.055 11.968L837.005 13.0117H838.048V12.0108ZM810.221 12.0108V13.0117H811.254L811.204 11.968L810.221 12.0108ZM792.899 12.0108L791.907 11.968L791.862 13.0117H792.899V12.0108ZM765.071 12.0108V13.0117H766.107L766.063 11.968L765.071 12.0108ZM747.753 12.0108L746.761 11.968L746.716 13.0117H747.753V12.0108ZM719.924 12.0108V13.0117H720.961L720.916 11.968L719.924 12.0108ZM702.607 12.0108L701.615 11.968L701.57 13.0117H702.607V12.0108ZM674.778 12.0108V13.0117H675.815L675.77 11.968L674.778 12.0108ZM657.46 12.0108L656.468 11.968L656.424 13.0117H657.46V12.0108ZM629.632 12.0108V13.0117H630.669L630.624 11.968L629.632 12.0108ZM612.314 12.0108L611.322 11.968L611.278 13.0117H612.314V12.0108ZM584.486 12.0108V13.0117H585.522L585.478 11.968L584.486 12.0108ZM567.168 12.0108L566.176 11.968L566.131 13.0117H567.168V12.0108ZM539.34 12.0108V13.0117H540.376L540.332 11.968L539.34 12.0108ZM522.022 12.0108L521.03 11.968L520.985 13.0117H522.022V12.0108ZM494.193 12.0108V13.0117H495.23L495.185 11.968L494.193 12.0108ZM476.876 12.0108L475.884 11.968L475.839 13.0117H476.876V12.0108ZM449.047 12.0108V13.0117H450.084L450.039 11.968L449.047 12.0108ZM431.73 12.0108L430.737 11.968L430.693 13.0117H431.73V12.0108ZM403.901 12.0108V13.0117H404.938L404.893 11.968L403.901 12.0108ZM386.583 12.0108L385.591 11.968L385.547 13.0117H386.583V12.0108ZM358.755 12.0108V13.0117H359.791L359.747 11.968L358.755 12.0108ZM341.437 12.0108L340.445 11.968L340.401 13.0117H341.437V12.0108ZM313.609 12.0108V13.0117H314.645L314.601 11.968L313.609 12.0108ZM296.291 12.0108L295.299 11.968L295.254 13.0117H296.291V12.0108ZM268.462 12.0108V13.0117H269.499L269.454 11.968L268.462 12.0108ZM251.145 12.0108L250.153 11.968L250.108 13.0117H251.145V12.0108ZM223.316 12.0108V13.0117H224.353L224.308 11.968L223.316 12.0108ZM205.999 12.0108L205.006 11.968L204.962 13.0117H205.999V12.0108ZM178.17 12.0108V13.0117H179.207L179.162 11.968L178.17 12.0108ZM160.852 12.0108L159.86 11.968L159.816 13.0117H160.852V12.0108ZM133.024 12.0108V13.0117H134.06L134.016 11.968L133.024 12.0108ZM115.706 12.0108L114.714 11.968L114.67 13.0117H115.706V12.0108ZM87.8782 12.0108V13.0117H88.9136L88.8699 11.968L87.8782 12.0108ZM70.5598 12.0108L69.568 11.968L69.5233 13.0117H70.5598V12.0108ZM42.7312 12.0108V13.0117H43.7676L43.7239 11.9679L42.7312 12.0108ZM25.4138 12.0108L24.422 11.9679L24.3773 13.0117H25.4138V12.0108ZM1.07567 11.5103C1.07567 5.70597 5.74255 1.00062 11.4995 1.00062V-1.00122C4.64557 -1.00122 -0.909821 4.60038 -0.909821 11.5103H1.07567ZM1.08559 11.9679C1.07864 11.8163 1.07567 11.6637 1.07567 11.5103H-0.909821C-0.909821 11.6923 -0.905853 11.8733 -0.897919 12.0536L1.08559 11.9679ZM-187.546 13.0117H0.0938416V11.0098H-187.546V13.0117ZM-186.553 375.346V12.0108H-188.538V375.346H-186.553ZM2063 374.345H-187.546V376.346H2063V374.345ZM2062.01 12.0108V375.346H2064V12.0108H2062.01ZM1919.05 13.0117H2063V11.0098H1919.05V13.0117ZM1918.06 11.5103C1918.06 11.6634 1918.06 11.816 1918.05 11.968L1920.04 12.0535C1920.05 11.8736 1920.05 11.6926 1920.05 11.5103H1918.06ZM1907.64 1.00062C1913.4 1.00062 1918.06 5.70597 1918.06 11.5103H1920.05C1920.05 4.60038 1914.49 -1.00122 1907.64 -1.00122V1.00062ZM1905.13 1.00062H1907.64V-1.00122H1905.13V1.00062ZM1894.7 11.5103C1894.7 5.70597 1899.37 1.00062 1905.13 1.00062V-1.00122C1898.28 -1.00122 1892.72 4.60038 1892.72 11.5103H1894.7ZM1894.71 11.968C1894.7 11.816 1894.7 11.6634 1894.7 11.5103H1892.72C1892.72 11.6926 1892.73 11.8736 1892.73 12.0535L1894.71 11.968ZM1876.41 13.0117H1893.72V11.0098H1876.41V13.0117ZM1875.43 11.5103C1875.43 11.6634 1875.42 11.816 1875.42 11.968L1877.4 12.0535C1877.4 11.8736 1877.41 11.6926 1877.41 11.5103H1875.43ZM1865 1.00062C1870.76 1.00062 1875.43 5.70598 1875.43 11.5103H1877.41C1877.41 4.60037 1871.85 -1.00122 1865 -1.00122V1.00062ZM1859.99 1.00062H1865V-1.00122H1859.99V1.00062ZM1849.56 11.5103C1849.56 5.70597 1854.23 1.00062 1859.99 1.00062V-1.00122C1853.13 -1.00122 1847.58 4.60038 1847.58 11.5103H1849.56ZM1849.57 11.968C1849.56 11.816 1849.56 11.6634 1849.56 11.5103H1847.58C1847.58 11.6926 1847.58 11.8736 1847.59 12.0535L1849.57 11.968ZM1831.26 13.0117H1848.58V11.0098H1831.26V13.0117ZM1830.27 11.5103C1830.27 11.6638 1830.28 11.8165 1830.27 11.968L1832.25 12.0535C1832.26 11.8731 1832.26 11.6921 1832.26 11.5103H1830.27ZM1819.85 1.00062C1825.61 1.00062 1830.27 5.70597 1830.27 11.5103H1832.26C1832.26 4.60038 1826.71 -1.00122 1819.85 -1.00122V1.00062ZM1814.84 1.00062H1819.85V-1.00122H1814.84V1.00062ZM1804.41 11.5103C1804.41 5.70597 1809.08 1.00062 1814.84 1.00062V-1.00122C1807.99 -1.00122 1802.43 4.60038 1802.43 11.5103H1804.41ZM1804.42 11.968C1804.41 11.8165 1804.41 11.6638 1804.41 11.5103H1802.43C1802.43 11.6921 1802.43 11.8731 1802.44 12.0535L1804.42 11.968ZM1786.12 13.0117H1803.43V11.0098H1786.12V13.0117ZM1785.13 11.5103C1785.13 11.6638 1785.12 11.8165 1785.12 11.968L1787.1 12.0535C1787.11 11.8731 1787.12 11.6921 1787.12 11.5103H1785.13ZM1774.71 1.00062C1780.47 1.00062 1785.13 5.70597 1785.13 11.5103H1787.12C1787.12 4.60038 1781.56 -1.00122 1774.71 -1.00122V1.00062ZM1769.69 1.00062H1774.71V-1.00122H1769.69V1.00062ZM1759.26 11.5103C1759.26 5.70597 1763.93 1.00062 1769.69 1.00062V-1.00122C1762.84 -1.00122 1757.28 4.60038 1757.28 11.5103H1759.26ZM1759.27 11.968C1759.27 11.8165 1759.26 11.6638 1759.26 11.5103H1757.28C1757.28 11.6921 1757.29 11.8731 1757.29 12.0535L1759.27 11.968ZM1740.97 13.0117H1758.28V11.0098H1740.97V13.0117ZM1739.98 11.5103C1739.98 11.6638 1739.98 11.8165 1739.97 11.968L1741.96 12.0535C1741.97 11.8731 1741.97 11.6921 1741.97 11.5103H1739.98ZM1729.56 1.00062C1735.32 1.00062 1739.98 5.70597 1739.98 11.5103H1741.97C1741.97 4.60038 1736.41 -1.00122 1729.56 -1.00122V1.00062ZM1724.55 1.00062H1729.56V-1.00122H1724.55V1.00062ZM1714.12 11.5103C1714.12 5.70597 1718.79 1.00062 1724.55 1.00062V-1.00122C1717.69 -1.00122 1712.14 4.60038 1712.14 11.5103H1714.12ZM1714.13 11.968C1714.12 11.8165 1714.12 11.6638 1714.12 11.5103H1712.14C1712.14 11.6921 1712.14 11.8731 1712.15 12.0535L1714.13 11.968ZM1695.82 13.0117H1713.14V11.0098H1695.82V13.0117ZM1694.83 11.5103C1694.83 11.6638 1694.83 11.8165 1694.83 11.968L1696.81 12.0535C1696.82 11.8731 1696.82 11.6921 1696.82 11.5103H1694.83ZM1684.41 1.00062C1690.17 1.00062 1694.83 5.70597 1694.83 11.5103H1696.82C1696.82 4.60038 1691.27 -1.00122 1684.41 -1.00122V1.00062ZM1679.4 1.00062H1684.41V-1.00122H1679.4V1.00062ZM1668.97 11.5103C1668.97 5.70597 1673.64 1.00062 1679.4 1.00062V-1.00122C1672.55 -1.00122 1666.99 4.60038 1666.99 11.5103H1668.97ZM1668.98 11.968C1668.97 11.8165 1668.97 11.6638 1668.97 11.5103H1666.99C1666.99 11.6921 1666.99 11.8731 1667 12.0535L1668.98 11.968ZM1650.68 13.0117H1667.99V11.0098H1650.68V13.0117ZM1649.69 11.5103C1649.69 11.6638 1649.69 11.8165 1649.69 11.968L1651.67 12.0535C1651.67 11.8731 1651.68 11.6921 1651.68 11.5103H1649.69ZM1639.27 1.00062C1645.03 1.00062 1649.69 5.70597 1649.69 11.5103H1651.68C1651.68 4.60038 1646.12 -1.00122 1639.27 -1.00122V1.00062ZM1634.25 1.00062H1639.27V-1.00122H1634.25V1.00062ZM1623.82 11.5103C1623.82 5.70597 1628.5 1.00062 1634.25 1.00062V-1.00122C1627.4 -1.00122 1621.84 4.60038 1621.84 11.5103H1623.82ZM1623.83 11.968C1623.83 11.8165 1623.82 11.6638 1623.82 11.5103H1621.84C1621.84 11.6921 1621.85 11.8731 1621.86 12.0535L1623.83 11.968ZM1605.53 13.0117H1622.85V11.0098H1605.53V13.0117ZM1604.54 11.5103C1604.54 11.6638 1604.55 11.8165 1604.54 11.968L1606.52 12.0535C1606.53 11.8731 1606.53 11.6921 1606.53 11.5103H1604.54ZM1594.12 1.00062C1599.88 1.00062 1604.54 5.70597 1604.54 11.5103H1606.53C1606.53 4.60038 1600.98 -1.00122 1594.12 -1.00122V1.00062ZM1589.11 1.00062H1594.12V-1.00122H1589.11V1.00062ZM1578.68 11.5103C1578.68 5.70597 1583.35 1.00062 1589.11 1.00062V-1.00122C1582.26 -1.00122 1576.7 4.60038 1576.7 11.5103H1578.68ZM1578.69 11.968C1578.68 11.8165 1578.68 11.6638 1578.68 11.5103H1576.7C1576.7 11.6921 1576.7 11.8731 1576.71 12.0535L1578.69 11.968ZM1560.39 13.0117H1577.7V11.0098H1560.39V13.0117ZM1559.4 11.5103C1559.4 11.6638 1559.39 11.8165 1559.39 11.968L1561.37 12.0535C1561.38 11.8731 1561.39 11.6921 1561.39 11.5103H1559.4ZM1548.98 1.00062C1554.73 1.00062 1559.4 5.70597 1559.4 11.5103H1561.39C1561.39 4.60038 1555.83 -1.00122 1548.98 -1.00122V1.00062ZM1543.96 1.00062H1548.98V-1.00122H1543.96V1.00062ZM1533.53 11.5103C1533.53 5.70597 1538.2 1.00062 1543.96 1.00062V-1.00122C1537.11 -1.00122 1531.55 4.60038 1531.55 11.5103H1533.53ZM1533.54 11.968C1533.54 11.8165 1533.53 11.6638 1533.53 11.5103H1531.55C1531.55 11.6921 1531.56 11.8731 1531.56 12.0535L1533.54 11.968ZM1515.24 13.0117H1532.55V11.0098H1515.24V13.0117ZM1514.25 11.5103C1514.25 11.6638 1514.25 11.8165 1514.24 11.968L1516.23 12.0535C1516.24 11.8731 1516.24 11.6921 1516.24 11.5103H1514.25ZM1503.83 1.00062C1509.59 1.00062 1514.25 5.70597 1514.25 11.5103H1516.24C1516.24 4.60038 1510.68 -1.00122 1503.83 -1.00122V1.00062ZM1498.82 1.00062H1503.83V-1.00122H1498.82V1.00062ZM1488.39 11.5103C1488.39 5.70597 1493.06 1.00062 1498.82 1.00062V-1.00122C1491.96 -1.00122 1486.41 4.60038 1486.41 11.5103H1488.39ZM1488.4 11.968C1488.39 11.8165 1488.39 11.6638 1488.39 11.5103H1486.41C1486.41 11.6921 1486.41 11.8731 1486.42 12.0535L1488.4 11.968ZM1470.09 13.0117H1487.41V11.0098H1470.09V13.0117ZM1469.1 11.5103C1469.1 11.6638 1469.1 11.8165 1469.09 11.968L1471.08 12.0535C1471.09 11.8731 1471.09 11.6921 1471.09 11.5103H1469.1ZM1458.68 1.00062C1464.44 1.00062 1469.1 5.70597 1469.1 11.5103H1471.09C1471.09 4.60038 1465.54 -1.00122 1458.68 -1.00122V1.00062ZM1453.67 1.00062H1458.68V-1.00122H1453.67V1.00062ZM1443.24 11.5103C1443.24 5.70597 1447.91 1.00062 1453.67 1.00062V-1.00122C1446.82 -1.00122 1441.26 4.60038 1441.26 11.5103H1443.24ZM1443.25 11.968C1443.24 11.8165 1443.24 11.6638 1443.24 11.5103H1441.26C1441.26 11.6921 1441.26 11.8731 1441.27 12.0535L1443.25 11.968ZM1424.95 13.0117H1442.26V11.0098H1424.95V13.0117ZM1423.96 11.5103C1423.96 11.6638 1423.95 11.8165 1423.95 11.968L1425.94 12.0535C1425.94 11.8731 1425.95 11.6921 1425.95 11.5103H1423.96ZM1413.54 1.00062C1419.3 1.00062 1423.96 5.70597 1423.96 11.5103H1425.95C1425.95 4.60038 1420.39 -1.00122 1413.54 -1.00122V1.00062ZM1408.52 1.00062H1413.54V-1.00122H1408.52V1.00062ZM1398.09 11.5103C1398.09 5.70597 1402.77 1.00062 1408.52 1.00062V-1.00122C1401.67 -1.00122 1396.11 4.60038 1396.11 11.5103H1398.09ZM1398.1 11.968C1398.1 11.8165 1398.09 11.6638 1398.09 11.5103H1396.11C1396.11 11.6921 1396.12 11.8731 1396.13 12.0535L1398.1 11.968ZM1379.8 13.0117H1397.12V11.0098H1379.8V13.0117ZM1378.81 11.5103C1378.81 11.6638 1378.81 11.8165 1378.81 11.968L1380.79 12.0535C1380.8 11.8731 1380.8 11.6921 1380.8 11.5103H1378.81ZM1368.39 1.00062C1374.15 1.00062 1378.81 5.70597 1378.81 11.5103H1380.8C1380.8 4.60038 1375.25 -1.00122 1368.39 -1.00122V1.00062ZM1363.38 1.00062H1368.39V-1.00122H1363.38V1.00062ZM1352.95 11.5103C1352.95 5.70597 1357.62 1.00062 1363.38 1.00062V-1.00122C1356.52 -1.00122 1350.97 4.60038 1350.97 11.5103H1352.95ZM1352.96 11.968C1352.95 11.8165 1352.95 11.6638 1352.95 11.5103H1350.97C1350.97 11.6921 1350.97 11.8731 1350.98 12.0535L1352.96 11.968ZM1334.65 13.0117H1351.97V11.0098H1334.65V13.0117ZM1333.67 11.5103C1333.67 11.6638 1333.66 11.8165 1333.66 11.968L1335.64 12.0535C1335.65 11.8731 1335.66 11.6921 1335.66 11.5103H1333.67ZM1323.25 1.00062C1329 1.00062 1333.67 5.70597 1333.67 11.5103H1335.66C1335.66 4.60038 1330.1 -1.00122 1323.25 -1.00122V1.00062ZM1318.23 1.00062H1323.25V-1.00122H1318.23V1.00062ZM1307.8 11.5103C1307.8 5.70597 1312.47 1.00062 1318.23 1.00062V-1.00122C1311.38 -1.00122 1305.82 4.60038 1305.82 11.5103H1307.8ZM1307.81 11.968C1307.81 11.8165 1307.8 11.6638 1307.8 11.5103H1305.82C1305.82 11.6921 1305.83 11.8731 1305.83 12.0535L1307.81 11.968ZM1289.51 13.0117H1306.82V11.0098H1289.51V13.0117ZM1288.52 11.5103C1288.52 11.6638 1288.52 11.8165 1288.52 11.968L1290.5 12.0535C1290.51 11.8731 1290.51 11.6921 1290.51 11.5103H1288.52ZM1278.1 1.00062C1283.86 1.00062 1288.52 5.70597 1288.52 11.5103H1290.51C1290.51 4.60038 1284.95 -1.00122 1278.1 -1.00122V1.00062ZM1273.09 1.00062H1278.1V-1.00122H1273.09V1.00062ZM1262.66 11.5103C1262.66 5.70597 1267.33 1.00062 1273.09 1.00062V-1.00122C1266.23 -1.00122 1260.68 4.60038 1260.68 11.5103H1262.66ZM1262.67 11.968C1262.66 11.8165 1262.66 11.6638 1262.66 11.5103H1260.68C1260.68 11.6921 1260.68 11.8731 1260.69 12.0535L1262.67 11.968ZM1244.36 13.0117H1261.68V11.0098H1244.36V13.0117ZM1243.38 11.5103C1243.38 11.6638 1243.37 11.8165 1243.36 11.968L1245.35 12.0535C1245.36 11.8731 1245.36 11.6921 1245.36 11.5103H1243.38ZM1232.95 1.00062C1238.71 1.00062 1243.38 5.70597 1243.38 11.5103H1245.36C1245.36 4.60038 1239.81 -1.00122 1232.95 -1.00122V1.00062ZM1227.94 1.00062H1232.95V-1.00122H1227.94V1.00062ZM1217.51 11.5103C1217.51 5.70597 1222.18 1.00062 1227.94 1.00062V-1.00122C1221.09 -1.00122 1215.53 4.60038 1215.53 11.5103H1217.51ZM1217.52 11.968C1217.51 11.8165 1217.51 11.6638 1217.51 11.5103H1215.53C1215.53 11.6921 1215.53 11.8731 1215.54 12.0535L1217.52 11.968ZM1199.22 13.0117H1216.53V11.0098H1199.22V13.0117ZM1198.23 11.5103C1198.23 11.6638 1198.22 11.8165 1198.22 11.968L1200.21 12.0535C1200.21 11.8731 1200.22 11.6921 1200.22 11.5103H1198.23ZM1187.81 1.00062C1193.57 1.00062 1198.23 5.70597 1198.23 11.5103H1200.22C1200.22 4.60038 1194.66 -1.00122 1187.81 -1.00122V1.00062ZM1182.79 1.00062H1187.81V-1.00122H1182.79V1.00062ZM1172.36 11.5103C1172.36 5.70597 1177.04 1.00062 1182.79 1.00062V-1.00122C1175.94 -1.00122 1170.38 4.60038 1170.38 11.5103H1172.36ZM1172.37 11.968C1172.37 11.8165 1172.36 11.6638 1172.36 11.5103H1170.38C1170.38 11.6921 1170.39 11.8731 1170.4 12.0535L1172.37 11.968ZM1154.07 13.0117H1171.38V11.0098H1154.07V13.0117ZM1153.08 11.5103C1153.08 11.6638 1153.08 11.8165 1153.08 11.968L1155.06 12.0535C1155.07 11.8731 1155.07 11.6921 1155.07 11.5103H1153.08ZM1142.66 1.00062C1148.42 1.00062 1153.08 5.70597 1153.08 11.5103H1155.07C1155.07 4.60038 1149.51 -1.00122 1142.66 -1.00122V1.00062ZM1137.65 1.00062H1142.66V-1.00122H1137.65V1.00062ZM1127.22 11.5103C1127.22 5.70597 1131.89 1.00062 1137.65 1.00062V-1.00122C1130.79 -1.00122 1125.24 4.60038 1125.24 11.5103H1127.22ZM1127.23 11.968C1127.22 11.8165 1127.22 11.6638 1127.22 11.5103H1125.24C1125.24 11.6921 1125.24 11.8731 1125.25 12.0535L1127.23 11.968ZM1108.92 13.0117H1126.24V11.0098H1108.92V13.0117ZM1107.93 11.5103C1107.93 11.6638 1107.93 11.8165 1107.93 11.968L1109.91 12.0535C1109.92 11.8731 1109.92 11.6921 1109.92 11.5103H1107.93ZM1097.51 1.00062C1103.27 1.00062 1107.93 5.70597 1107.93 11.5103H1109.92C1109.92 4.60038 1104.37 -1.00122 1097.51 -1.00122V1.00062ZM1092.5 1.00062H1097.51V-1.00122H1092.5V1.00062ZM1082.07 11.5103C1082.07 5.70597 1086.74 1.00062 1092.5 1.00062V-1.00122C1085.65 -1.00122 1080.09 4.60038 1080.09 11.5103H1082.07ZM1082.08 11.968C1082.08 11.8165 1082.07 11.6638 1082.07 11.5103H1080.09C1080.09 11.6921 1080.1 11.8731 1080.1 12.0535L1082.08 11.968ZM1063.78 13.0117H1081.09V11.0098H1063.78V13.0117ZM1062.79 11.5103C1062.79 11.6638 1062.79 11.8165 1062.78 11.968L1064.77 12.0535C1064.78 11.8731 1064.78 11.6921 1064.78 11.5103H1062.79ZM1052.37 1.00062C1058.13 1.00062 1062.79 5.70597 1062.79 11.5103H1064.78C1064.78 4.60038 1059.22 -1.00122 1052.37 -1.00122V1.00062ZM1047.36 1.00062H1052.37V-1.00122H1047.36V1.00062ZM1036.93 11.5103C1036.93 5.70597 1041.6 1.00062 1047.36 1.00062V-1.00122C1040.5 -1.00122 1034.95 4.60038 1034.95 11.5103H1036.93ZM1036.94 11.968C1036.93 11.8165 1036.93 11.6638 1036.93 11.5103H1034.95C1034.95 11.6921 1034.95 11.8731 1034.96 12.0535L1036.94 11.968ZM1018.63 13.0117H1035.95V11.0098H1018.63V13.0117ZM1017.64 11.5103C1017.64 11.6638 1017.64 11.8165 1017.64 11.968L1019.62 12.0535C1019.63 11.8731 1019.63 11.6921 1019.63 11.5103H1017.64ZM1007.22 1.00062C1012.98 1.00062 1017.64 5.70597 1017.64 11.5103H1019.63C1019.63 4.60038 1014.08 -1.00122 1007.22 -1.00122V1.00062ZM1002.21 1.00062H1007.22V-1.00122H1002.21V1.00062ZM991.784 11.5103C991.784 5.70597 996.45 1.00062 1002.21 1.00062V-1.00122C995.358 -1.00122 989.798 4.60038 989.798 11.5103H991.784ZM991.794 11.968C991.784 11.8165 991.784 11.6638 991.784 11.5103H989.798C989.798 11.6921 989.798 11.8731 989.808 12.0535L991.794 11.968ZM973.488 13.0117H990.801V11.0098H973.488V13.0117ZM972.505 11.5103C972.505 11.6638 972.495 11.8165 972.495 11.968L974.48 12.0535C974.48 11.8731 974.49 11.6921 974.49 11.5103H972.505ZM962.081 1.00062C967.839 1.00062 972.505 5.70597 972.505 11.5103H974.49C974.49 4.60038 968.931 -1.00122 962.081 -1.00122V1.00062ZM957.058 1.00062H962.081V-1.00122H957.058V1.00062ZM946.634 11.5103C946.634 5.70597 951.3 1.00062 957.058 1.00062V-1.00122C950.208 -1.00122 944.648 4.60038 944.648 11.5103H946.634ZM946.644 11.968C946.644 11.8165 946.634 11.6638 946.634 11.5103H944.648C944.648 11.6921 944.658 11.8731 944.668 12.0535L946.644 11.968ZM928.338 13.0117H945.651V11.0098H928.338V13.0117ZM927.355 11.5103C927.355 11.6638 927.355 11.8165 927.345 11.968L929.331 12.0535C929.34 11.8731 929.34 11.6921 929.34 11.5103H927.355ZM916.931 1.00062C922.689 1.00062 927.355 5.70597 927.355 11.5103H929.34C929.34 4.60038 923.781 -1.00122 916.931 -1.00122V1.00062ZM911.918 1.00062H916.931V-1.00122H911.918V1.00062ZM901.494 11.5103C901.494 5.70597 906.16 1.00062 911.918 1.00062V-1.00122C905.058 -1.00122 899.508 4.60038 899.508 11.5103H901.494ZM901.504 11.968C901.494 11.8165 901.494 11.6638 901.494 11.5103H899.508C899.508 11.6921 899.508 11.8731 899.518 12.0535L901.504 11.968ZM883.188 13.0117H900.511V11.0098H883.188V13.0117ZM882.205 11.5103C882.205 11.6638 882.205 11.8165 882.195 11.968L884.181 12.0535C884.191 11.8731 884.19 11.6921 884.19 11.5103H882.205ZM871.781 1.00062C877.539 1.00062 882.205 5.70597 882.205 11.5103H884.19C884.19 4.60038 878.641 -1.00122 871.781 -1.00122V1.00062ZM866.768 1.00062H871.781V-1.00122H866.768V1.00062ZM856.344 11.5103C856.344 5.70597 861.01 1.00062 866.768 1.00062V-1.00122C859.918 -1.00122 854.359 4.60038 854.359 11.5103H856.344ZM856.354 11.968C856.344 11.8165 856.344 11.6638 856.344 11.5103H854.359C854.359 11.6921 854.368 11.8731 854.368 12.0535L856.354 11.968ZM838.048 13.0117H855.361V11.0098H838.048V13.0117ZM837.065 11.5103C837.065 11.6638 837.055 11.8165 837.055 11.968L839.04 12.0535C839.04 11.8731 839.05 11.6921 839.05 11.5103H837.065ZM826.641 1.00062C832.399 1.00062 837.065 5.70596 837.065 11.5103H839.05C839.05 4.60039 833.491 -1.00122 826.641 -1.00122V1.00062ZM821.628 1.00062H826.641V-1.00122H821.628V1.00062ZM811.204 11.5103C811.204 5.70597 815.87 1.00062 821.628 1.00062V-1.00122C814.768 -1.00122 809.218 4.60038 809.218 11.5103H811.204ZM811.204 11.968C811.204 11.8163 811.204 11.6636 811.204 11.5103H809.218C809.218 11.6924 809.218 11.8734 809.228 12.0535L811.204 11.968ZM792.899 13.0117H810.221V11.0098H792.899V13.0117ZM791.917 11.5103C791.917 11.6636 791.913 11.8163 791.907 11.968L793.891 12.0535C793.898 11.8734 793.902 11.6924 793.902 11.5103H791.917ZM781.493 1.00062C787.25 1.00062 791.917 5.70597 791.917 11.5103H793.902C793.902 4.60038 788.346 -1.00122 781.493 -1.00122V1.00062ZM776.477 1.00062H781.493V-1.00122H776.477V1.00062ZM766.053 11.5103C766.053 5.70597 770.72 1.00062 776.477 1.00062V-1.00122C769.623 -1.00122 764.067 4.60038 764.067 11.5103H766.053ZM766.063 11.968C766.056 11.8163 766.053 11.6636 766.053 11.5103H764.067C764.067 11.6924 764.071 11.8734 764.078 12.0535L766.063 11.968ZM747.753 13.0117H765.071V11.0098H747.753V13.0117ZM746.771 11.5103C746.771 11.6636 746.767 11.8163 746.761 11.968L748.744 12.0535C748.752 11.8734 748.756 11.6924 748.756 11.5103H746.771ZM736.347 1.00062C742.104 1.00062 746.771 5.70597 746.771 11.5103H748.756C748.756 4.60038 743.2 -1.00122 736.347 -1.00122V1.00062ZM731.331 1.00062H736.347V-1.00122H731.331V1.00062ZM720.907 11.5103C720.907 5.70597 725.574 1.00062 731.331 1.00062V-1.00122C724.477 -1.00122 718.922 4.60038 718.922 11.5103H720.907ZM720.916 11.968C720.91 11.8163 720.907 11.6636 720.907 11.5103H718.922C718.922 11.6924 718.925 11.8734 718.932 12.0535L720.916 11.968ZM702.607 13.0117H719.924V11.0098H702.607V13.0117ZM701.624 11.5103C701.624 11.6636 701.621 11.8163 701.615 11.968L703.599 12.0535C703.605 11.8734 703.609 11.6924 703.609 11.5103H701.624ZM691.2 1.00062C696.957 1.00062 701.624 5.70597 701.624 11.5103H703.609C703.609 4.60038 698.054 -1.00122 691.2 -1.00122V1.00062ZM686.184 1.00062H691.2V-1.00122H686.184V1.00062ZM675.76 11.5103C675.76 5.70597 680.427 1.00062 686.184 1.00062V-1.00122C679.331 -1.00122 673.775 4.60038 673.775 11.5103H675.76ZM675.77 11.968C675.764 11.8163 675.76 11.6636 675.76 11.5103H673.775C673.775 11.6924 673.778 11.8734 673.786 12.0535L675.77 11.968ZM657.46 13.0117H674.778V11.0098H657.46V13.0117ZM656.478 11.5103C656.478 11.6636 656.475 11.8163 656.468 11.968L658.453 12.0535C658.459 11.8734 658.463 11.6924 658.463 11.5103H656.478ZM646.054 1.00062C651.811 1.00062 656.478 5.70597 656.478 11.5103H658.463C658.463 4.60038 652.908 -1.00122 646.054 -1.00122V1.00062ZM641.038 1.00062H646.054V-1.00122H641.038V1.00062ZM630.614 11.5103C630.614 5.70597 635.281 1.00062 641.038 1.00062V-1.00122C634.185 -1.00122 628.629 4.60038 628.629 11.5103H630.614ZM630.624 11.968C630.618 11.8163 630.614 11.6636 630.614 11.5103H628.629C628.629 11.6924 628.632 11.8734 628.64 12.0535L630.624 11.968ZM612.314 13.0117H629.632V11.0098H612.314V13.0117ZM611.332 11.5103C611.332 11.6636 611.329 11.8163 611.322 11.968L613.306 12.0535C613.313 11.8734 613.317 11.6924 613.317 11.5103H611.332ZM600.908 1.00062C606.665 1.00062 611.332 5.70597 611.332 11.5103H613.317C613.317 4.60038 607.762 -1.00122 600.908 -1.00122V1.00062ZM595.892 1.00062H600.908V-1.00122H595.892V1.00062ZM585.468 11.5103C585.468 5.70597 590.135 1.00062 595.892 1.00062V-1.00122C589.039 -1.00122 583.482 4.60038 583.482 11.5103H585.468ZM585.478 11.968C585.471 11.8163 585.468 11.6636 585.468 11.5103H583.482C583.482 11.6924 583.487 11.8734 583.494 12.0535L585.478 11.968ZM567.168 13.0117H584.486V11.0098H567.168V13.0117ZM566.186 11.5103C566.186 11.6636 566.182 11.8163 566.176 11.968L568.159 12.0535C568.167 11.8734 568.171 11.6924 568.171 11.5103H566.186ZM555.762 1.00062C561.519 1.00062 566.186 5.70597 566.186 11.5103H568.171C568.171 4.60038 562.615 -1.00122 555.762 -1.00122V1.00062ZM550.746 1.00062H555.762V-1.00122H550.746V1.00062ZM540.322 11.5103C540.322 5.70597 544.989 1.00062 550.746 1.00062V-1.00122C543.892 -1.00122 538.336 4.60038 538.336 11.5103H540.322ZM540.332 11.968C540.325 11.8163 540.322 11.6636 540.322 11.5103H538.336C538.336 11.6924 538.34 11.8734 538.347 12.0535L540.332 11.968ZM522.022 13.0117H539.34V11.0098H522.022V13.0117ZM521.04 11.5103C521.04 11.6636 521.036 11.8163 521.03 11.968L523.013 12.0535C523.021 11.8734 523.025 11.6924 523.025 11.5103H521.04ZM510.616 1.00062C516.373 1.00062 521.04 5.70597 521.04 11.5103H523.025C523.025 4.60038 517.469 -1.00122 510.616 -1.00122V1.00062ZM505.6 1.00062H510.616V-1.00122H505.6V1.00062ZM495.176 11.5103C495.176 5.70597 499.843 1.00062 505.6 1.00062V-1.00122C498.746 -1.00122 493.19 4.60038 493.19 11.5103H495.176ZM495.185 11.968C495.179 11.8163 495.176 11.6636 495.176 11.5103H493.19C493.19 11.6924 493.195 11.8734 493.201 12.0535L495.185 11.968ZM476.876 13.0117H494.193V11.0098H476.876V13.0117ZM475.893 11.5103C475.893 11.6636 475.89 11.8163 475.884 11.968L477.867 12.0535C477.874 11.8734 477.878 11.6924 477.878 11.5103H475.893ZM465.469 1.00062C471.226 1.00062 475.893 5.70597 475.893 11.5103H477.878C477.878 4.60038 472.323 -1.00122 465.469 -1.00122V1.00062ZM460.453 1.00062H465.469V-1.00122H460.453V1.00062ZM450.029 11.5103C450.029 5.70597 454.696 1.00062 460.453 1.00062V-1.00122C453.6 -1.00122 448.044 4.60038 448.044 11.5103H450.029ZM450.039 11.968C450.033 11.8163 450.029 11.6636 450.029 11.5103H448.044C448.044 11.6924 448.047 11.8734 448.055 12.0535L450.039 11.968ZM431.73 13.0117H449.047V11.0098H431.73V13.0117ZM430.747 11.5103C430.747 11.6636 430.744 11.8163 430.737 11.968L432.722 12.0535C432.728 11.8734 432.732 11.6924 432.732 11.5103H430.747ZM420.323 1.00062C426.08 1.00062 430.747 5.70597 430.747 11.5103H432.732C432.732 4.60038 427.177 -1.00122 420.323 -1.00122V1.00062ZM415.307 1.00062H420.323V-1.00122H415.307V1.00062ZM404.883 11.5103C404.883 5.70597 409.55 1.00062 415.307 1.00062V-1.00122C408.454 -1.00122 402.897 4.60038 402.897 11.5103H404.883ZM404.893 11.968C404.887 11.8163 404.883 11.6636 404.883 11.5103H402.897C402.897 11.6924 402.901 11.8734 402.909 12.0535L404.893 11.968ZM386.583 13.0117H403.901V11.0098H386.583V13.0117ZM385.601 11.5103C385.601 11.6636 385.598 11.8163 385.591 11.968L387.574 12.0535C387.582 11.8734 387.586 11.6924 387.586 11.5103H385.601ZM375.177 1.00062C380.934 1.00062 385.601 5.70597 385.601 11.5103H387.586C387.586 4.60038 382.031 -1.00122 375.177 -1.00122V1.00062ZM370.161 1.00062H375.177V-1.00122H370.161V1.00062ZM359.737 11.5103C359.737 5.70597 364.404 1.00062 370.161 1.00062V-1.00122C363.308 -1.00122 357.752 4.60038 357.752 11.5103H359.737ZM359.747 11.968C359.74 11.8163 359.737 11.6636 359.737 11.5103H357.752C357.752 11.6924 357.755 11.8734 357.763 12.0535L359.747 11.968ZM341.437 13.0117H358.755V11.0098H341.437V13.0117ZM340.455 11.5103C340.455 11.6636 340.452 11.8163 340.445 11.968L342.429 12.0535C342.436 11.8734 342.44 11.6924 342.44 11.5103H340.455ZM330.031 1.00062C335.788 1.00062 340.455 5.70597 340.455 11.5103H342.44C342.44 4.60038 336.884 -1.00122 330.031 -1.00122V1.00062ZM325.015 1.00062H330.031V-1.00122H325.015V1.00062ZM314.591 11.5103C314.591 5.70597 319.258 1.00062 325.015 1.00062V-1.00122C318.161 -1.00122 312.605 4.60038 312.605 11.5103H314.591ZM314.601 11.968C314.594 11.8163 314.591 11.6636 314.591 11.5103H312.605C312.605 11.6924 312.609 11.8734 312.616 12.0535L314.601 11.968ZM296.291 13.0117H313.609V11.0098H296.291V13.0117ZM295.309 11.5103C295.309 11.6636 295.305 11.8163 295.299 11.968L297.283 12.0535C297.29 11.8734 297.294 11.6924 297.294 11.5103H295.309ZM284.885 1.00062C290.642 1.00062 295.309 5.70597 295.309 11.5103H297.294C297.294 4.60038 291.738 -1.00122 284.885 -1.00122V1.00062ZM279.869 1.00062H284.885V-1.00122H279.869V1.00062ZM269.445 11.5103C269.445 5.70597 274.112 1.00062 279.869 1.00062V-1.00122C273.015 -1.00122 267.46 4.60038 267.46 11.5103H269.445ZM269.454 11.968C269.448 11.8163 269.445 11.6636 269.445 11.5103H267.46C267.46 11.6924 267.463 11.8734 267.47 12.0535L269.454 11.968ZM251.145 13.0117H268.462V11.0098H251.145V13.0117ZM250.162 11.5103C250.162 11.6636 250.159 11.8163 250.153 11.968L252.137 12.0535C252.144 11.8734 252.147 11.6924 252.147 11.5103H250.162ZM239.738 1.00062C245.495 1.00062 250.162 5.70597 250.162 11.5103H252.147C252.147 4.60038 246.592 -1.00122 239.738 -1.00122V1.00062ZM234.722 1.00062H239.738V-1.00122H234.722V1.00062ZM224.298 11.5103C224.298 5.70597 228.966 1.00062 234.722 1.00062V-1.00122C227.869 -1.00122 222.312 4.60038 222.312 11.5103H224.298ZM224.308 11.968C224.302 11.8163 224.298 11.6636 224.298 11.5103H222.312C222.312 11.6924 222.316 11.8734 222.324 12.0535L224.308 11.968ZM205.999 13.0117H223.316V11.0098H205.999V13.0117ZM205.016 11.5103C205.016 11.6636 205.013 11.8163 205.006 11.968L206.991 12.0535C206.997 11.8734 207.001 11.6924 207.001 11.5103H205.016ZM194.592 1.00062C200.349 1.00062 205.016 5.70597 205.016 11.5103H207.001C207.001 4.60038 201.446 -1.00122 194.592 -1.00122V1.00062ZM189.576 1.00062H194.592V-1.00122H189.576V1.00062ZM179.152 11.5103C179.152 5.70597 183.819 1.00062 189.576 1.00062V-1.00122C182.723 -1.00122 177.167 4.60038 177.167 11.5103H179.152ZM179.162 11.968C179.156 11.8163 179.152 11.6636 179.152 11.5103H177.167C177.167 11.6924 177.171 11.8734 177.178 12.0535L179.162 11.968ZM160.852 13.0117H178.17V11.0098H160.852V13.0117ZM159.87 11.5103C159.87 11.6636 159.867 11.8163 159.86 11.968L161.844 12.0535C161.851 11.8734 161.855 11.6924 161.855 11.5103H159.87ZM149.446 1.00062C155.203 1.00062 159.87 5.70597 159.87 11.5103H161.855C161.855 4.60038 156.3 -1.00122 149.446 -1.00122V1.00062ZM144.43 1.00062H149.446V-1.00122H144.43V1.00062ZM134.006 11.5103C134.006 5.70597 138.673 1.00062 144.43 1.00062V-1.00122C137.577 -1.00122 132.021 4.60038 132.021 11.5103H134.006ZM134.016 11.968C134.009 11.8163 134.006 11.6636 134.006 11.5103H132.021C132.021 11.6924 132.024 11.8734 132.032 12.0535L134.016 11.968ZM115.706 13.0117H133.024V11.0098H115.706V13.0117ZM114.724 11.5103C114.724 11.6636 114.721 11.8163 114.714 11.968L116.698 12.0535C116.705 11.8734 116.709 11.6924 116.709 11.5103H114.724ZM104.3 1.00062C110.057 1.00062 114.724 5.70597 114.724 11.5103H116.709C116.709 4.60038 111.153 -1.00122 104.3 -1.00122V1.00062ZM99.2838 1.00062H104.3V-1.00122H99.2838V1.00062ZM88.86 11.5103C88.86 5.70597 93.5269 1.00062 99.2838 1.00062V-1.00122C92.4299 -1.00122 86.8745 4.60038 86.8745 11.5103H88.86ZM88.8699 11.968C88.863 11.8163 88.86 11.6636 88.86 11.5103H86.8745C86.8745 11.6924 86.8785 11.8734 86.8854 12.0535L88.8699 11.968ZM70.5598 13.0117H87.8782V11.0098H70.5598V13.0117ZM69.5779 11.5103C69.5779 11.6636 69.574 11.8163 69.568 11.968L71.5515 12.0535C71.5594 11.8734 71.5634 11.6924 71.5634 11.5103H69.5779ZM59.1541 1.00062C64.9111 1.00062 69.5779 5.70597 69.5779 11.5103H71.5634C71.5634 4.60038 66.007 -1.00122 59.1541 -1.00122V1.00062ZM54.1378 1.00062H59.1541V-1.00122H54.1378V1.00062ZM43.714 11.5103C43.714 5.70597 48.3809 1.00062 54.1378 1.00062V-1.00122C47.2839 -1.00122 41.7285 4.60038 41.7285 11.5103H43.714ZM43.7239 11.9679C43.717 11.8163 43.714 11.6637 43.714 11.5103H41.7285C41.7285 11.6923 41.7325 11.8733 41.7394 12.0536L43.7239 11.9679ZM25.4138 13.0117H42.7312V11.0098H25.4138V13.0117ZM24.431 11.5103C24.431 11.6637 24.428 11.8163 24.422 11.9679L26.4055 12.0536C26.4135 11.8733 26.4164 11.6923 26.4164 11.5103H24.431ZM14.0071 1.00062C19.7641 1.00062 24.431 5.70597 24.431 11.5103H26.4164C26.4164 4.60038 20.861 -1.00122 14.0071 -1.00122V1.00062ZM11.4995 1.00062H14.0071V-1.00122H11.4995V1.00062Z" fill="url(#paint1_linear_52_2)"/>
</g>
</g>
<defs>
<linearGradient id="paint0_linear_52_2" x1="2.06812" y1="11.5103" x2="1905.65" y2="0.187217" gradientUnits="userSpaceOnUse">
<stop stop-color="#7A2AFF"/>
<stop offset="1" stop-color="#4FA8FF"/>
</linearGradient>
<linearGradient id="paint1_linear_52_2" x1="2.06841" y1="11.51" x2="1905.66" y2="0.186898" gradientUnits="userSpaceOnUse">
<stop stop-color="#7A2AFF"/>
<stop offset="1" stop-color="#4FA8FF"/>
</linearGradient>
<clipPath id="clip0_52_2">
<rect width="1920" height="13" fill="white"/>
</clipPath>
</defs>
</svg>
